<svg width="762" height="513" viewBox="0 0 762 513" fill="none" xmlns="http://www.w3.org/2000/svg">
<rect width="762" height="513" fill="white"/>
<circle cx="259" cy="404" r="39" fill="#C4C4C4"/>
<path d="M223.467 397.783C223.467 396.795 223.688 396.008 224.129 395.422C224.574 394.836 225.182 394.543 225.951 394.543C226.568 394.543 227.078 394.773 227.48 395.234V392H229.18V401H227.65L227.568 400.326C227.146 400.854 226.604 401.117 225.939 401.117C225.193 401.117 224.594 400.824 224.141 400.238C223.691 399.648 223.467 398.83 223.467 397.783ZM225.16 397.906C225.16 398.5 225.264 398.955 225.471 399.271C225.678 399.588 225.979 399.746 226.373 399.746C226.896 399.746 227.266 399.525 227.48 399.084V396.582C227.27 396.141 226.904 395.92 226.385 395.92C225.568 395.92 225.16 396.582 225.16 397.906ZM232.279 401H230.58V394.66H232.279V401ZM230.48 393.02C230.48 392.766 230.564 392.557 230.732 392.393C230.904 392.229 231.137 392.146 231.43 392.146C231.719 392.146 231.949 392.229 232.121 392.393C232.293 392.557 232.379 392.766 232.379 393.02C232.379 393.277 232.291 393.488 232.115 393.652C231.943 393.816 231.715 393.898 231.43 393.898C231.145 393.898 230.914 393.816 230.738 393.652C230.566 393.488 230.48 393.277 230.48 393.02ZM237.113 399.248C237.113 399.041 237.01 398.879 236.803 398.762C236.6 398.641 236.271 398.533 235.818 398.439C234.311 398.123 233.557 397.482 233.557 396.518C233.557 395.955 233.789 395.486 234.254 395.111C234.723 394.732 235.334 394.543 236.088 394.543C236.893 394.543 237.535 394.732 238.016 395.111C238.5 395.49 238.742 395.982 238.742 396.588H237.049C237.049 396.346 236.971 396.146 236.814 395.99C236.658 395.83 236.414 395.75 236.082 395.75C235.797 395.75 235.576 395.814 235.42 395.943C235.264 396.072 235.186 396.236 235.186 396.436C235.186 396.623 235.273 396.775 235.449 396.893C235.629 397.006 235.93 397.105 236.352 397.191C236.773 397.273 237.129 397.367 237.418 397.473C238.312 397.801 238.76 398.369 238.76 399.178C238.76 399.756 238.512 400.225 238.016 400.584C237.52 400.939 236.879 401.117 236.094 401.117C235.562 401.117 235.09 401.023 234.676 400.836C234.266 400.645 233.943 400.385 233.709 400.057C233.475 399.725 233.357 399.367 233.357 398.984H234.963C234.979 399.285 235.09 399.516 235.297 399.676C235.504 399.836 235.781 399.916 236.129 399.916C236.453 399.916 236.697 399.855 236.861 399.734C237.029 399.609 237.113 399.447 237.113 399.248ZM245.562 397.889C245.562 398.865 245.34 399.648 244.895 400.238C244.453 400.824 243.855 401.117 243.102 401.117C242.461 401.117 241.943 400.895 241.549 400.449V403.438H239.855V394.66H241.426L241.484 395.281C241.895 394.789 242.43 394.543 243.09 394.543C243.871 394.543 244.479 394.832 244.912 395.41C245.346 395.988 245.562 396.785 245.562 397.801V397.889ZM243.869 397.766C243.869 397.176 243.764 396.721 243.553 396.4C243.346 396.08 243.043 395.92 242.645 395.92C242.113 395.92 241.748 396.123 241.549 396.529V399.125C241.756 399.543 242.125 399.752 242.656 399.752C243.465 399.752 243.869 399.09 243.869 397.766ZM248.404 401H246.705V392H248.404V401ZM253.479 401C253.4 400.848 253.344 400.658 253.309 400.432C252.898 400.889 252.365 401.117 251.709 401.117C251.088 401.117 250.572 400.938 250.162 400.578C249.756 400.219 249.553 399.766 249.553 399.219C249.553 398.547 249.801 398.031 250.297 397.672C250.797 397.312 251.518 397.131 252.459 397.127H253.238V396.764C253.238 396.471 253.162 396.236 253.01 396.061C252.861 395.885 252.625 395.797 252.301 395.797C252.016 395.797 251.791 395.865 251.627 396.002C251.467 396.139 251.387 396.326 251.387 396.564H249.693C249.693 396.197 249.807 395.857 250.033 395.545C250.26 395.232 250.58 394.988 250.994 394.812C251.408 394.633 251.873 394.543 252.389 394.543C253.17 394.543 253.789 394.74 254.246 395.135C254.707 395.525 254.938 396.076 254.938 396.787V399.535C254.941 400.137 255.025 400.592 255.189 400.9V401H253.479ZM252.078 399.822C252.328 399.822 252.559 399.768 252.77 399.658C252.98 399.545 253.137 399.395 253.238 399.207V398.117H252.605C251.758 398.117 251.307 398.41 251.252 398.996L251.246 399.096C251.246 399.307 251.32 399.48 251.469 399.617C251.617 399.754 251.82 399.822 252.078 399.822ZM258.512 398.604L259.684 394.66H261.5L258.951 401.984L258.811 402.318C258.432 403.146 257.807 403.561 256.936 403.561C256.689 403.561 256.439 403.523 256.186 403.449V402.166L256.443 402.172C256.764 402.172 257.002 402.123 257.158 402.025C257.318 401.928 257.443 401.766 257.533 401.539L257.732 401.018L255.512 394.66H257.334L258.512 398.604ZM266.861 402.324H261.523V401H266.861V402.324ZM269.082 394.66L269.135 395.393C269.588 394.826 270.195 394.543 270.957 394.543C271.629 394.543 272.129 394.74 272.457 395.135C272.785 395.529 272.953 396.119 272.961 396.904V401H271.268V396.945C271.268 396.586 271.189 396.326 271.033 396.166C270.877 396.002 270.617 395.92 270.254 395.92C269.777 395.92 269.42 396.123 269.182 396.529V401H267.488V394.66H269.082ZM277.924 401C277.846 400.848 277.789 400.658 277.754 400.432C277.344 400.889 276.811 401.117 276.154 401.117C275.533 401.117 275.018 400.938 274.607 400.578C274.201 400.219 273.998 399.766 273.998 399.219C273.998 398.547 274.246 398.031 274.742 397.672C275.242 397.312 275.963 397.131 276.904 397.127H277.684V396.764C277.684 396.471 277.607 396.236 277.455 396.061C277.307 395.885 277.07 395.797 276.746 395.797C276.461 395.797 276.236 395.865 276.072 396.002C275.912 396.139 275.832 396.326 275.832 396.564H274.139C274.139 396.197 274.252 395.857 274.479 395.545C274.705 395.232 275.025 394.988 275.439 394.812C275.854 394.633 276.318 394.543 276.834 394.543C277.615 394.543 278.234 394.74 278.691 395.135C279.152 395.525 279.383 396.076 279.383 396.787V399.535C279.387 400.137 279.471 400.592 279.635 400.9V401H277.924ZM276.523 399.822C276.773 399.822 277.004 399.768 277.215 399.658C277.426 399.545 277.582 399.395 277.684 399.207V398.117H277.051C276.203 398.117 275.752 398.41 275.697 398.996L275.691 399.096C275.691 399.307 275.766 399.48 275.914 399.617C276.062 399.754 276.266 399.822 276.523 399.822ZM282.271 394.66L282.324 395.369C282.773 394.818 283.381 394.543 284.146 394.543C284.963 394.543 285.523 394.865 285.828 395.51C286.273 394.865 286.908 394.543 287.732 394.543C288.42 394.543 288.932 394.744 289.268 395.146C289.604 395.545 289.771 396.146 289.771 396.951V401H288.072V396.957C288.072 396.598 288.002 396.336 287.861 396.172C287.721 396.004 287.473 395.92 287.117 395.92C286.609 395.92 286.258 396.162 286.062 396.646L286.068 401H284.375V396.963C284.375 396.596 284.303 396.33 284.158 396.166C284.014 396.002 283.768 395.92 283.42 395.92C282.939 395.92 282.592 396.119 282.377 396.518V401H280.684V394.66H282.271ZM293.996 401.117C293.066 401.117 292.309 400.832 291.723 400.262C291.141 399.691 290.85 398.932 290.85 397.982V397.818C290.85 397.182 290.973 396.613 291.219 396.113C291.465 395.609 291.812 395.223 292.262 394.953C292.715 394.68 293.23 394.543 293.809 394.543C294.676 394.543 295.357 394.816 295.854 395.363C296.354 395.91 296.604 396.686 296.604 397.689V398.381H292.566C292.621 398.795 292.785 399.127 293.059 399.377C293.336 399.627 293.686 399.752 294.107 399.752C294.76 399.752 295.27 399.516 295.637 399.043L296.469 399.975C296.215 400.334 295.871 400.615 295.438 400.818C295.004 401.018 294.523 401.117 293.996 401.117ZM293.803 395.914C293.467 395.914 293.193 396.027 292.982 396.254C292.775 396.48 292.643 396.805 292.584 397.227H294.939V397.092C294.932 396.717 294.83 396.428 294.635 396.225C294.439 396.018 294.162 395.914 293.803 395.914ZM239.586 411.197C238.621 410.92 237.918 410.58 237.477 410.178C237.039 409.771 236.82 409.271 236.82 408.678C236.82 408.006 237.088 407.451 237.623 407.014C238.162 406.572 238.861 406.352 239.721 406.352C240.307 406.352 240.828 406.465 241.285 406.691C241.746 406.918 242.102 407.23 242.352 407.629C242.605 408.027 242.732 408.463 242.732 408.936H241.602C241.602 408.42 241.438 408.016 241.109 407.723C240.781 407.426 240.318 407.277 239.721 407.277C239.166 407.277 238.732 407.4 238.42 407.646C238.111 407.889 237.957 408.227 237.957 408.66C237.957 409.008 238.104 409.303 238.396 409.545C238.693 409.783 239.195 410.002 239.902 410.201C240.613 410.4 241.168 410.621 241.566 410.863C241.969 411.102 242.266 411.381 242.457 411.701C242.652 412.021 242.75 412.398 242.75 412.832C242.75 413.523 242.48 414.078 241.941 414.496C241.402 414.91 240.682 415.117 239.779 415.117C239.193 415.117 238.646 415.006 238.139 414.783C237.631 414.557 237.238 414.248 236.961 413.857C236.688 413.467 236.551 413.023 236.551 412.527H237.682C237.682 413.043 237.871 413.451 238.25 413.752C238.633 414.049 239.143 414.197 239.779 414.197C240.373 414.197 240.828 414.076 241.145 413.834C241.461 413.592 241.619 413.262 241.619 412.844C241.619 412.426 241.473 412.104 241.18 411.877C240.887 411.646 240.355 411.42 239.586 411.197ZM247.941 415C247.879 414.875 247.828 414.652 247.789 414.332C247.285 414.855 246.684 415.117 245.984 415.117C245.359 415.117 244.846 414.941 244.443 414.59C244.045 414.234 243.846 413.785 243.846 413.242C243.846 412.582 244.096 412.07 244.596 411.707C245.1 411.34 245.807 411.156 246.717 411.156H247.771V410.658C247.771 410.279 247.658 409.979 247.432 409.756C247.205 409.529 246.871 409.416 246.43 409.416C246.043 409.416 245.719 409.514 245.457 409.709C245.195 409.904 245.064 410.141 245.064 410.418H243.975C243.975 410.102 244.086 409.797 244.309 409.504C244.535 409.207 244.84 408.973 245.223 408.801C245.609 408.629 246.033 408.543 246.494 408.543C247.225 408.543 247.797 408.727 248.211 409.094C248.625 409.457 248.84 409.959 248.855 410.6V413.518C248.855 414.1 248.93 414.562 249.078 414.906V415H247.941ZM246.143 414.174C246.482 414.174 246.805 414.086 247.109 413.91C247.414 413.734 247.635 413.506 247.771 413.225V411.924H246.922C245.594 411.924 244.93 412.312 244.93 413.09C244.93 413.43 245.043 413.695 245.27 413.887C245.496 414.078 245.787 414.174 246.143 414.174ZM252.025 407.125V408.66H253.209V409.498H252.025V413.43C252.025 413.684 252.078 413.875 252.184 414.004C252.289 414.129 252.469 414.191 252.723 414.191C252.848 414.191 253.02 414.168 253.238 414.121V415C252.953 415.078 252.676 415.117 252.406 415.117C251.922 415.117 251.557 414.971 251.311 414.678C251.064 414.385 250.941 413.969 250.941 413.43V409.498H249.787V408.66H250.941V407.125H252.025ZM257.023 414.232C257.41 414.232 257.748 414.115 258.037 413.881C258.326 413.646 258.486 413.354 258.518 413.002H259.543C259.523 413.365 259.398 413.711 259.168 414.039C258.938 414.367 258.629 414.629 258.242 414.824C257.859 415.02 257.453 415.117 257.023 415.117C256.16 415.117 255.473 414.83 254.961 414.256C254.453 413.678 254.199 412.889 254.199 411.889V411.707C254.199 411.09 254.312 410.541 254.539 410.061C254.766 409.58 255.09 409.207 255.512 408.941C255.938 408.676 256.439 408.543 257.018 408.543C257.729 408.543 258.318 408.756 258.787 409.182C259.26 409.607 259.512 410.16 259.543 410.84H258.518C258.486 410.43 258.33 410.094 258.049 409.832C257.771 409.566 257.428 409.434 257.018 409.434C256.467 409.434 256.039 409.633 255.734 410.031C255.434 410.426 255.283 410.998 255.283 411.748V411.953C255.283 412.684 255.434 413.246 255.734 413.641C256.035 414.035 256.465 414.232 257.023 414.232ZM261.846 409.428C262.326 408.838 262.951 408.543 263.721 408.543C265.061 408.543 265.736 409.299 265.748 410.811V415H264.664V410.805C264.66 410.348 264.555 410.01 264.348 409.791C264.145 409.572 263.826 409.463 263.393 409.463C263.041 409.463 262.732 409.557 262.467 409.744C262.201 409.932 261.994 410.178 261.846 410.482V415H260.762V406H261.846V409.428ZM268.391 408.66L268.42 409.363C268.885 408.816 269.512 408.543 270.301 408.543C271.188 408.543 271.791 408.883 272.111 409.562C272.322 409.258 272.596 409.012 272.932 408.824C273.271 408.637 273.672 408.543 274.133 408.543C275.523 408.543 276.23 409.279 276.254 410.752V415H275.17V410.816C275.17 410.363 275.066 410.025 274.859 409.803C274.652 409.576 274.305 409.463 273.816 409.463C273.414 409.463 273.08 409.584 272.814 409.826C272.549 410.064 272.395 410.387 272.352 410.793V415H271.262V410.846C271.262 409.924 270.811 409.463 269.908 409.463C269.197 409.463 268.711 409.766 268.449 410.371V415H267.365V408.66H268.391ZM277.607 411.771C277.607 411.15 277.729 410.592 277.971 410.096C278.217 409.6 278.557 409.217 278.99 408.947C279.428 408.678 279.926 408.543 280.484 408.543C281.348 408.543 282.045 408.842 282.576 409.439C283.111 410.037 283.379 410.832 283.379 411.824V411.9C283.379 412.518 283.26 413.072 283.021 413.564C282.787 414.053 282.449 414.434 282.008 414.707C281.57 414.98 281.066 415.117 280.496 415.117C279.637 415.117 278.939 414.818 278.404 414.221C277.873 413.623 277.607 412.832 277.607 411.848V411.771ZM278.697 411.9C278.697 412.604 278.859 413.168 279.184 413.594C279.512 414.02 279.949 414.232 280.496 414.232C281.047 414.232 281.484 414.018 281.809 413.588C282.133 413.154 282.295 412.549 282.295 411.771C282.295 411.076 282.129 410.514 281.797 410.084C281.469 409.65 281.031 409.434 280.484 409.434C279.949 409.434 279.518 409.646 279.189 410.072C278.861 410.498 278.697 411.107 278.697 411.9Z" fill="black"/>
<circle cx="381" cy="404" r="39" fill="#C4C4C4"/>
<path d="M361.125 401H359.426V394.66H361.125V401ZM359.326 393.02C359.326 392.766 359.41 392.557 359.578 392.393C359.75 392.229 359.982 392.146 360.275 392.146C360.564 392.146 360.795 392.229 360.967 392.393C361.139 392.557 361.225 392.766 361.225 393.02C361.225 393.277 361.137 393.488 360.961 393.652C360.789 393.816 360.561 393.898 360.275 393.898C359.99 393.898 359.76 393.816 359.584 393.652C359.412 393.488 359.326 393.277 359.326 393.02ZM364.084 394.66L364.137 395.393C364.59 394.826 365.197 394.543 365.959 394.543C366.631 394.543 367.131 394.74 367.459 395.135C367.787 395.529 367.955 396.119 367.963 396.904V401H366.27V396.945C366.27 396.586 366.191 396.326 366.035 396.166C365.879 396.002 365.619 395.92 365.256 395.92C364.779 395.92 364.422 396.123 364.184 396.529V401H362.49V394.66H364.084ZM371.279 393.102V394.66H372.363V395.902H371.279V399.066C371.279 399.301 371.324 399.469 371.414 399.57C371.504 399.672 371.676 399.723 371.93 399.723C372.117 399.723 372.283 399.709 372.428 399.682V400.965C372.096 401.066 371.754 401.117 371.402 401.117C370.215 401.117 369.609 400.518 369.586 399.318V395.902H368.66V394.66H369.586V393.102H371.279ZM376.225 401.117C375.295 401.117 374.537 400.832 373.951 400.262C373.369 399.691 373.078 398.932 373.078 397.982V397.818C373.078 397.182 373.201 396.613 373.447 396.113C373.693 395.609 374.041 395.223 374.49 394.953C374.943 394.68 375.459 394.543 376.037 394.543C376.904 394.543 377.586 394.816 378.082 395.363C378.582 395.91 378.832 396.686 378.832 397.689V398.381H374.795C374.85 398.795 375.014 399.127 375.287 399.377C375.564 399.627 375.914 399.752 376.336 399.752C376.988 399.752 377.498 399.516 377.865 399.043L378.697 399.975C378.443 400.334 378.1 400.615 377.666 400.818C377.232 401.018 376.752 401.117 376.225 401.117ZM376.031 395.914C375.695 395.914 375.422 396.027 375.211 396.254C375.004 396.48 374.871 396.805 374.812 397.227H377.168V397.092C377.16 396.717 377.059 396.428 376.863 396.225C376.668 396.018 376.391 395.914 376.031 395.914ZM383.361 396.248C383.131 396.217 382.928 396.201 382.752 396.201C382.111 396.201 381.691 396.418 381.492 396.852V401H379.799V394.66H381.398L381.445 395.416C381.785 394.834 382.256 394.543 382.857 394.543C383.045 394.543 383.221 394.568 383.385 394.619L383.361 396.248ZM386.982 401.117C386.053 401.117 385.295 400.832 384.709 400.262C384.127 399.691 383.836 398.932 383.836 397.982V397.818C383.836 397.182 383.959 396.613 384.205 396.113C384.451 395.609 384.799 395.223 385.248 394.953C385.701 394.68 386.217 394.543 386.795 394.543C387.662 394.543 388.344 394.816 388.84 395.363C389.34 395.91 389.59 396.686 389.59 397.689V398.381H385.553C385.607 398.795 385.771 399.127 386.045 399.377C386.322 399.627 386.672 399.752 387.094 399.752C387.746 399.752 388.256 399.516 388.623 399.043L389.455 399.975C389.201 400.334 388.857 400.615 388.424 400.818C387.99 401.018 387.51 401.117 386.982 401.117ZM386.789 395.914C386.453 395.914 386.18 396.027 385.969 396.254C385.762 396.48 385.629 396.805 385.57 397.227H387.926V397.092C387.918 396.717 387.816 396.428 387.621 396.225C387.426 396.018 387.148 395.914 386.789 395.914ZM393.99 399.248C393.99 399.041 393.887 398.879 393.68 398.762C393.477 398.641 393.148 398.533 392.695 398.439C391.188 398.123 390.434 397.482 390.434 396.518C390.434 395.955 390.666 395.486 391.131 395.111C391.6 394.732 392.211 394.543 392.965 394.543C393.77 394.543 394.412 394.732 394.893 395.111C395.377 395.49 395.619 395.982 395.619 396.588H393.926C393.926 396.346 393.848 396.146 393.691 395.99C393.535 395.83 393.291 395.75 392.959 395.75C392.674 395.75 392.453 395.814 392.297 395.943C392.141 396.072 392.062 396.236 392.062 396.436C392.062 396.623 392.15 396.775 392.326 396.893C392.506 397.006 392.807 397.105 393.229 397.191C393.65 397.273 394.006 397.367 394.295 397.473C395.189 397.801 395.637 398.369 395.637 399.178C395.637 399.756 395.389 400.225 394.893 400.584C394.396 400.939 393.756 401.117 392.971 401.117C392.439 401.117 391.967 401.023 391.553 400.836C391.143 400.645 390.82 400.385 390.586 400.057C390.352 399.725 390.234 399.367 390.234 398.984H391.84C391.855 399.285 391.967 399.516 392.174 399.676C392.381 399.836 392.658 399.916 393.006 399.916C393.33 399.916 393.574 399.855 393.738 399.734C393.906 399.609 393.99 399.447 393.99 399.248ZM398.76 393.102V394.66H399.844V395.902H398.76V399.066C398.76 399.301 398.805 399.469 398.895 399.57C398.984 399.672 399.156 399.723 399.41 399.723C399.598 399.723 399.764 399.709 399.908 399.682V400.965C399.576 401.066 399.234 401.117 398.883 401.117C397.695 401.117 397.09 400.518 397.066 399.318V395.902H396.141V394.66H397.066V393.102H398.76ZM404.221 399.248C404.221 399.041 404.117 398.879 403.91 398.762C403.707 398.641 403.379 398.533 402.926 398.439C401.418 398.123 400.664 397.482 400.664 396.518C400.664 395.955 400.896 395.486 401.361 395.111C401.83 394.732 402.441 394.543 403.195 394.543C404 394.543 404.643 394.732 405.123 395.111C405.607 395.49 405.85 395.982 405.85 396.588H404.156C404.156 396.346 404.078 396.146 403.922 395.99C403.766 395.83 403.521 395.75 403.189 395.75C402.904 395.75 402.684 395.814 402.527 395.943C402.371 396.072 402.293 396.236 402.293 396.436C402.293 396.623 402.381 396.775 402.557 396.893C402.736 397.006 403.037 397.105 403.459 397.191C403.881 397.273 404.236 397.367 404.525 397.473C405.42 397.801 405.867 398.369 405.867 399.178C405.867 399.756 405.619 400.225 405.123 400.584C404.627 400.939 403.986 401.117 403.201 401.117C402.67 401.117 402.197 401.023 401.783 400.836C401.373 400.645 401.051 400.385 400.816 400.057C400.582 399.725 400.465 399.367 400.465 398.984H402.07C402.086 399.285 402.197 399.516 402.404 399.676C402.611 399.836 402.889 399.916 403.236 399.916C403.561 399.916 403.805 399.855 403.969 399.734C404.137 399.609 404.221 399.447 404.221 399.248ZM353.297 411.9C353.297 412.869 353.074 413.648 352.629 414.238C352.184 414.824 351.586 415.117 350.836 415.117C350.035 415.117 349.416 414.834 348.979 414.268L348.926 415H347.93V406H349.014V409.357C349.451 408.814 350.055 408.543 350.824 408.543C351.594 408.543 352.197 408.834 352.635 409.416C353.076 409.998 353.297 410.795 353.297 411.807V411.9ZM352.213 411.777C352.213 411.039 352.07 410.469 351.785 410.066C351.5 409.664 351.09 409.463 350.555 409.463C349.84 409.463 349.326 409.795 349.014 410.459V413.201C349.346 413.865 349.863 414.197 350.566 414.197C351.086 414.197 351.49 413.996 351.779 413.594C352.068 413.191 352.213 412.586 352.213 411.777ZM355.846 415H354.762V408.66H355.846V415ZM354.674 406.979C354.674 406.803 354.727 406.654 354.832 406.533C354.941 406.412 355.102 406.352 355.312 406.352C355.523 406.352 355.684 406.412 355.793 406.533C355.902 406.654 355.957 406.803 355.957 406.979C355.957 407.154 355.902 407.301 355.793 407.418C355.684 407.535 355.523 407.594 355.312 407.594C355.102 407.594 354.941 407.535 354.832 407.418C354.727 407.301 354.674 407.154 354.674 406.979ZM359.057 407.125V408.66H360.24V409.498H359.057V413.43C359.057 413.684 359.109 413.875 359.215 414.004C359.32 414.129 359.5 414.191 359.754 414.191C359.879 414.191 360.051 414.168 360.27 414.121V415C359.984 415.078 359.707 415.117 359.438 415.117C358.953 415.117 358.588 414.971 358.342 414.678C358.096 414.385 357.973 413.969 357.973 413.43V409.498H356.818V408.66H357.973V407.125H359.057ZM364.055 414.232C364.441 414.232 364.779 414.115 365.068 413.881C365.357 413.646 365.518 413.354 365.549 413.002H366.574C366.555 413.365 366.43 413.711 366.199 414.039C365.969 414.367 365.66 414.629 365.273 414.824C364.891 415.02 364.484 415.117 364.055 415.117C363.191 415.117 362.504 414.83 361.992 414.256C361.484 413.678 361.23 412.889 361.23 411.889V411.707C361.23 411.09 361.344 410.541 361.57 410.061C361.797 409.58 362.121 409.207 362.543 408.941C362.969 408.676 363.471 408.543 364.049 408.543C364.76 408.543 365.35 408.756 365.818 409.182C366.291 409.607 366.543 410.16 366.574 410.84H365.549C365.518 410.43 365.361 410.094 365.08 409.832C364.803 409.566 364.459 409.434 364.049 409.434C363.498 409.434 363.07 409.633 362.766 410.031C362.465 410.426 362.314 410.998 362.314 411.748V411.953C362.314 412.684 362.465 413.246 362.766 413.641C363.066 414.035 363.496 414.232 364.055 414.232ZM367.506 411.771C367.506 411.15 367.627 410.592 367.869 410.096C368.115 409.6 368.455 409.217 368.889 408.947C369.326 408.678 369.824 408.543 370.383 408.543C371.246 408.543 371.943 408.842 372.475 409.439C373.01 410.037 373.277 410.832 373.277 411.824V411.9C373.277 412.518 373.158 413.072 372.92 413.564C372.686 414.053 372.348 414.434 371.906 414.707C371.469 414.98 370.965 415.117 370.395 415.117C369.535 415.117 368.838 414.818 368.303 414.221C367.771 413.623 367.506 412.832 367.506 411.848V411.771ZM368.596 411.9C368.596 412.604 368.758 413.168 369.082 413.594C369.41 414.02 369.848 414.232 370.395 414.232C370.945 414.232 371.383 414.018 371.707 413.588C372.031 413.154 372.193 412.549 372.193 411.771C372.193 411.076 372.027 410.514 371.695 410.084C371.367 409.65 370.93 409.434 370.383 409.434C369.848 409.434 369.416 409.646 369.088 410.072C368.76 410.498 368.596 411.107 368.596 411.9ZM375.814 415H374.73V408.66H375.814V415ZM374.643 406.979C374.643 406.803 374.695 406.654 374.801 406.533C374.91 406.412 375.07 406.352 375.281 406.352C375.492 406.352 375.652 406.412 375.762 406.533C375.871 406.654 375.926 406.803 375.926 406.979C375.926 407.154 375.871 407.301 375.762 407.418C375.652 407.535 375.492 407.594 375.281 407.594C375.07 407.594 374.91 407.535 374.801 407.418C374.695 407.301 374.643 407.154 374.643 406.979ZM378.58 408.66L378.615 409.457C379.1 408.848 379.732 408.543 380.514 408.543C381.854 408.543 382.529 409.299 382.541 410.811V415H381.457V410.805C381.453 410.348 381.348 410.01 381.141 409.791C380.938 409.572 380.619 409.463 380.186 409.463C379.834 409.463 379.525 409.557 379.26 409.744C378.994 409.932 378.787 410.178 378.639 410.482V415H377.555V408.66H378.58ZM384.141 416.699L383.525 416.277C383.893 415.766 384.084 415.238 384.1 414.695V413.717H385.16V414.566C385.16 414.961 385.062 415.355 384.867 415.75C384.676 416.145 384.434 416.461 384.141 416.699ZM390.979 407.125V408.66H392.162V409.498H390.979V413.43C390.979 413.684 391.031 413.875 391.137 414.004C391.242 414.129 391.422 414.191 391.676 414.191C391.801 414.191 391.973 414.168 392.191 414.121V415C391.906 415.078 391.629 415.117 391.359 415.117C390.875 415.117 390.51 414.971 390.264 414.678C390.018 414.385 389.895 413.969 389.895 413.43V409.498H388.74V408.66H389.895V407.125H390.979ZM396.498 409.633C396.334 409.605 396.156 409.592 395.965 409.592C395.254 409.592 394.771 409.895 394.518 410.5V415H393.434V408.66H394.488L394.506 409.393C394.861 408.826 395.365 408.543 396.018 408.543C396.229 408.543 396.389 408.57 396.498 408.625V409.633ZM401.18 415C401.117 414.875 401.066 414.652 401.027 414.332C400.523 414.855 399.922 415.117 399.223 415.117C398.598 415.117 398.084 414.941 397.682 414.59C397.283 414.234 397.084 413.785 397.084 413.242C397.084 412.582 397.334 412.07 397.834 411.707C398.338 411.34 399.045 411.156 399.955 411.156H401.01V410.658C401.01 410.279 400.896 409.979 400.67 409.756C400.443 409.529 400.109 409.416 399.668 409.416C399.281 409.416 398.957 409.514 398.695 409.709C398.434 409.904 398.303 410.141 398.303 410.418H397.213C397.213 410.102 397.324 409.797 397.547 409.504C397.773 409.207 398.078 408.973 398.461 408.801C398.848 408.629 399.271 408.543 399.732 408.543C400.463 408.543 401.035 408.727 401.449 409.094C401.863 409.457 402.078 409.959 402.094 410.6V413.518C402.094 414.1 402.168 414.562 402.316 414.906V415H401.18ZM399.381 414.174C399.721 414.174 400.043 414.086 400.348 413.91C400.652 413.734 400.873 413.506 401.01 413.225V411.924H400.16C398.832 411.924 398.168 412.312 398.168 413.09C398.168 413.43 398.281 413.695 398.508 413.887C398.734 414.078 399.025 414.174 399.381 414.174ZM405.791 413.529L407.361 408.66H408.469L406.195 415H405.369L403.072 408.66H404.18L405.791 413.529ZM412.061 415.117C411.201 415.117 410.502 414.836 409.963 414.273C409.424 413.707 409.154 412.951 409.154 412.006V411.807C409.154 411.178 409.273 410.617 409.512 410.125C409.754 409.629 410.09 409.242 410.52 408.965C410.953 408.684 411.422 408.543 411.926 408.543C412.75 408.543 413.391 408.814 413.848 409.357C414.305 409.9 414.533 410.678 414.533 411.689V412.141H410.238C410.254 412.766 410.436 413.271 410.783 413.658C411.135 414.041 411.58 414.232 412.119 414.232C412.502 414.232 412.826 414.154 413.092 413.998C413.357 413.842 413.59 413.635 413.789 413.377L414.451 413.893C413.92 414.709 413.123 415.117 412.061 415.117ZM411.926 409.434C411.488 409.434 411.121 409.594 410.824 409.914C410.527 410.23 410.344 410.676 410.273 411.25H413.449V411.168C413.418 410.617 413.27 410.191 413.004 409.891C412.738 409.586 412.379 409.434 411.926 409.434ZM416.971 415H415.887V406H416.971V415Z" fill="black"/>
<circle cx="503" cy="404" r="39" fill="#C4C4C4"/>
<path d="M380.354 315.646C380.158 315.451 379.842 315.451 379.646 315.646L376.464 318.828C376.269 319.024 376.269 319.34 376.464 319.536C376.66 319.731 376.976 319.731 377.172 319.536L380 316.707L382.828 319.536C383.024 319.731 383.34 319.731 383.536 319.536C383.731 319.34 383.731 319.024 383.536 318.828L380.354 315.646ZM380.5 349L380.5 316L379.5 316L379.5 349L380.5 349Z" fill="black"/>
<path d="M336.5 313C336.5 312.724 336.276 312.5 336 312.5H331.5C331.224 312.5 331 312.724 331 313C331 313.276 331.224 313.5 331.5 313.5H335.5V317.5C335.5 317.776 335.724 318 336 318C336.276 318 336.5 317.776 336.5 317.5V313ZM297.354 352.354L336.354 313.354L335.646 312.646L296.646 351.646L297.354 352.354Z" fill="black"/>
<path d="M426 312.5C425.724 312.5 425.5 312.724 425.5 313V317.5C425.5 317.776 425.724 318 426 318C426.276 318 426.5 317.776 426.5 317.5V313.5H430.5C430.776 313.5 431 313.276 431 313C431 312.724 430.776 312.5 430.5 312.5H426ZM464.354 350.646L426.354 312.646L425.646 313.354L463.646 351.354L464.354 350.646Z" fill="black"/>
<circle cx="380.5" cy="184.5" r="114.5" fill="#5C0053"/>
<path d="M319.211 178.977V191H312.18V156.875H325.492C328.055 156.875 330.305 157.344 332.242 158.281C334.195 159.219 335.695 160.555 336.742 162.289C337.789 164.008 338.312 165.969 338.312 168.172C338.312 171.516 337.164 174.156 334.867 176.094C332.586 178.016 329.422 178.977 325.375 178.977H319.211ZM319.211 173.281H325.492C327.352 173.281 328.766 172.844 329.734 171.969C330.719 171.094 331.211 169.844 331.211 168.219C331.211 166.547 330.719 165.195 329.734 164.164C328.75 163.133 327.391 162.602 325.656 162.57H319.211V173.281ZM356.969 171.992C356.047 171.867 355.234 171.805 354.531 171.805C351.969 171.805 350.289 172.672 349.492 174.406V191H342.719V165.641H349.117L349.305 168.664C350.664 166.336 352.547 165.172 354.953 165.172C355.703 165.172 356.406 165.273 357.062 165.477L356.969 171.992ZM358.352 178.086C358.352 175.57 358.836 173.328 359.805 171.359C360.773 169.391 362.164 167.867 363.977 166.789C365.805 165.711 367.922 165.172 370.328 165.172C373.75 165.172 376.539 166.219 378.695 168.312C380.867 170.406 382.078 173.25 382.328 176.844L382.375 178.578C382.375 182.469 381.289 185.594 379.117 187.953C376.945 190.297 374.031 191.469 370.375 191.469C366.719 191.469 363.797 190.297 361.609 187.953C359.438 185.609 358.352 182.422 358.352 178.391V178.086ZM365.125 178.578C365.125 180.984 365.578 182.828 366.484 184.109C367.391 185.375 368.688 186.008 370.375 186.008C372.016 186.008 373.297 185.383 374.219 184.133C375.141 182.867 375.602 180.852 375.602 178.086C375.602 175.727 375.141 173.898 374.219 172.602C373.297 171.305 372 170.656 370.328 170.656C368.672 170.656 367.391 171.305 366.484 172.602C365.578 173.883 365.125 175.875 365.125 178.578ZM388.188 191V170.609H384.414V165.641H388.188V164.469C388.219 161.281 389.195 158.828 391.117 157.109C393.055 155.375 395.781 154.508 399.297 154.508C401.406 154.508 403.969 154.969 406.984 155.891L406 161.492C404.469 161.039 403.281 160.75 402.438 160.625C401.594 160.484 400.688 160.414 399.719 160.414C396.562 160.414 394.984 161.812 394.984 164.609V165.641H399.977V170.609H394.984V191H388.188ZM410.148 191H403.352V165.641H410.148V191ZM422.898 191H416.102V155H422.898V191ZM440.172 191.469C436.453 191.469 433.422 190.328 431.078 188.047C428.75 185.766 427.586 182.727 427.586 178.93V178.273C427.586 175.727 428.078 173.453 429.062 171.453C430.047 169.438 431.438 167.891 433.234 166.812C435.047 165.719 437.109 165.172 439.422 165.172C442.891 165.172 445.617 166.266 447.602 168.453C449.602 170.641 450.602 173.742 450.602 177.758V180.523H434.453C434.672 182.18 435.328 183.508 436.422 184.508C437.531 185.508 438.93 186.008 440.617 186.008C443.227 186.008 445.266 185.062 446.734 183.172L450.062 186.898C449.047 188.336 447.672 189.461 445.938 190.273C444.203 191.07 442.281 191.469 440.172 191.469ZM439.398 170.656C438.055 170.656 436.961 171.109 436.117 172.016C435.289 172.922 434.758 174.219 434.523 175.906H443.945V175.367C443.914 173.867 443.508 172.711 442.727 171.898C441.945 171.07 440.836 170.656 439.398 170.656Z" fill="white"/>
<path d="M351.946 214.356H350.312V218H348.262V208.047H351.96C353.136 208.047 354.043 208.309 354.681 208.833C355.319 209.357 355.638 210.098 355.638 211.055C355.638 211.734 355.49 212.301 355.193 212.757C354.902 213.208 354.457 213.568 353.86 213.837L356.014 217.904V218H353.812L351.946 214.356ZM350.312 212.695H351.967C352.482 212.695 352.881 212.565 353.163 212.306C353.446 212.041 353.587 211.679 353.587 211.219C353.587 210.749 353.452 210.38 353.184 210.111C352.919 209.842 352.511 209.708 351.96 209.708H350.312V212.695ZM356.766 214.233C356.766 213.5 356.907 212.846 357.189 212.271C357.472 211.697 357.878 211.253 358.406 210.938C358.939 210.624 359.557 210.467 360.259 210.467C361.257 210.467 362.07 210.772 362.699 211.383C363.333 211.993 363.686 212.823 363.759 213.871L363.772 214.377C363.772 215.512 363.456 216.423 362.822 217.111C362.189 217.795 361.339 218.137 360.272 218.137C359.206 218.137 358.354 217.795 357.716 217.111C357.082 216.428 356.766 215.498 356.766 214.322V214.233ZM358.741 214.377C358.741 215.079 358.873 215.617 359.138 215.99C359.402 216.359 359.78 216.544 360.272 216.544C360.751 216.544 361.125 216.362 361.394 215.997C361.662 215.628 361.797 215.04 361.797 214.233C361.797 213.545 361.662 213.012 361.394 212.634C361.125 212.256 360.746 212.066 360.259 212.066C359.776 212.066 359.402 212.256 359.138 212.634C358.873 213.007 358.741 213.589 358.741 214.377ZM364.682 214.233C364.682 213.5 364.823 212.846 365.105 212.271C365.388 211.697 365.794 211.253 366.322 210.938C366.855 210.624 367.473 210.467 368.175 210.467C369.173 210.467 369.986 210.772 370.615 211.383C371.249 211.993 371.602 212.823 371.675 213.871L371.688 214.377C371.688 215.512 371.372 216.423 370.738 217.111C370.105 217.795 369.255 218.137 368.188 218.137C367.122 218.137 366.27 217.795 365.632 217.111C364.998 216.428 364.682 215.498 364.682 214.322V214.233ZM366.657 214.377C366.657 215.079 366.789 215.617 367.054 215.99C367.318 216.359 367.696 216.544 368.188 216.544C368.667 216.544 369.041 216.362 369.31 215.997C369.578 215.628 369.713 215.04 369.713 214.233C369.713 213.545 369.578 213.012 369.31 212.634C369.041 212.256 368.662 212.066 368.175 212.066C367.692 212.066 367.318 212.256 367.054 212.634C366.789 213.007 366.657 213.589 366.657 214.377ZM375.271 208.785V210.604H376.535V212.053H375.271V215.744C375.271 216.018 375.323 216.214 375.428 216.332C375.533 216.451 375.733 216.51 376.029 216.51C376.248 216.51 376.442 216.494 376.61 216.462V217.959C376.223 218.077 375.824 218.137 375.414 218.137C374.029 218.137 373.322 217.437 373.295 216.038V212.053H372.215V210.604H373.295V208.785H375.271ZM389.346 218H387.295L383.303 211.451V218H381.252V208.047H383.303L387.302 214.609V208.047H389.346V218ZM390.699 214.233C390.699 213.5 390.84 212.846 391.123 212.271C391.406 211.697 391.811 211.253 392.34 210.938C392.873 210.624 393.491 210.467 394.192 210.467C395.19 210.467 396.004 210.772 396.633 211.383C397.266 211.993 397.619 212.823 397.692 213.871L397.706 214.377C397.706 215.512 397.389 216.423 396.756 217.111C396.122 217.795 395.272 218.137 394.206 218.137C393.14 218.137 392.287 217.795 391.649 217.111C391.016 216.428 390.699 215.498 390.699 214.322V214.233ZM392.675 214.377C392.675 215.079 392.807 215.617 393.071 215.99C393.336 216.359 393.714 216.544 394.206 216.544C394.685 216.544 395.058 216.362 395.327 215.997C395.596 215.628 395.73 215.04 395.73 214.233C395.73 213.545 395.596 213.012 395.327 212.634C395.058 212.256 394.68 212.066 394.192 212.066C393.709 212.066 393.336 212.256 393.071 212.634C392.807 213.007 392.675 213.589 392.675 214.377ZM398.615 214.247C398.615 213.094 398.873 212.176 399.388 211.492C399.907 210.809 400.616 210.467 401.514 210.467C402.234 210.467 402.828 210.736 403.298 211.273V207.5H405.28V218H403.496L403.4 217.214C402.908 217.829 402.275 218.137 401.5 218.137C400.63 218.137 399.93 217.795 399.401 217.111C398.877 216.423 398.615 215.468 398.615 214.247ZM400.591 214.391C400.591 215.083 400.712 215.614 400.953 215.983C401.195 216.353 401.546 216.537 402.006 216.537C402.617 216.537 403.047 216.28 403.298 215.765V212.846C403.052 212.331 402.626 212.073 402.02 212.073C401.067 212.073 400.591 212.846 400.591 214.391ZM410.216 218.137C409.131 218.137 408.247 217.804 407.563 217.139C406.884 216.473 406.545 215.587 406.545 214.479V214.288C406.545 213.545 406.688 212.882 406.976 212.299C407.263 211.711 407.668 211.26 408.192 210.945C408.721 210.626 409.323 210.467 409.997 210.467C411.009 210.467 411.804 210.786 412.383 211.424C412.966 212.062 413.258 212.966 413.258 214.138V214.944H408.548C408.612 215.427 408.803 215.815 409.122 216.106C409.446 216.398 409.854 216.544 410.346 216.544C411.107 216.544 411.701 216.268 412.13 215.717L413.101 216.804C412.804 217.223 412.403 217.551 411.897 217.788C411.392 218.021 410.831 218.137 410.216 218.137ZM409.99 212.066C409.598 212.066 409.279 212.199 409.033 212.463C408.792 212.727 408.637 213.105 408.568 213.598H411.316V213.44C411.307 213.003 411.189 212.666 410.961 212.429C410.733 212.187 410.41 212.066 409.99 212.066Z" fill="white"/>
<path d="M493.193 390.889C493.193 391.865 492.971 392.648 492.525 393.238C492.084 393.824 491.486 394.117 490.732 394.117C490.092 394.117 489.574 393.895 489.18 393.449V396.438H487.486V387.66H489.057L489.115 388.281C489.525 387.789 490.061 387.543 490.721 387.543C491.502 387.543 492.109 387.832 492.543 388.41C492.977 388.988 493.193 389.785 493.193 390.801V390.889ZM491.5 390.766C491.5 390.176 491.395 389.721 491.184 389.4C490.977 389.08 490.674 388.92 490.275 388.92C489.744 388.92 489.379 389.123 489.18 389.529V392.125C489.387 392.543 489.756 392.752 490.287 392.752C491.096 392.752 491.5 392.09 491.5 390.766ZM497.922 394C497.844 393.848 497.787 393.658 497.752 393.432C497.342 393.889 496.809 394.117 496.152 394.117C495.531 394.117 495.016 393.938 494.605 393.578C494.199 393.219 493.996 392.766 493.996 392.219C493.996 391.547 494.244 391.031 494.74 390.672C495.24 390.312 495.961 390.131 496.902 390.127H497.682V389.764C497.682 389.471 497.605 389.236 497.453 389.061C497.305 388.885 497.068 388.797 496.744 388.797C496.459 388.797 496.234 388.865 496.07 389.002C495.91 389.139 495.83 389.326 495.83 389.564H494.137C494.137 389.197 494.25 388.857 494.477 388.545C494.703 388.232 495.023 387.988 495.438 387.812C495.852 387.633 496.316 387.543 496.832 387.543C497.613 387.543 498.232 387.74 498.689 388.135C499.15 388.525 499.381 389.076 499.381 389.787V392.535C499.385 393.137 499.469 393.592 499.633 393.9V394H497.922ZM496.521 392.822C496.771 392.822 497.002 392.768 497.213 392.658C497.424 392.545 497.58 392.395 497.682 392.207V391.117H497.049C496.201 391.117 495.75 391.41 495.695 391.996L495.689 392.096C495.689 392.307 495.764 392.48 495.912 392.617C496.061 392.754 496.264 392.822 496.521 392.822ZM502.955 391.604L504.127 387.66H505.943L503.395 394.984L503.254 395.318C502.875 396.146 502.25 396.561 501.379 396.561C501.133 396.561 500.883 396.523 500.629 396.449V395.166L500.887 395.172C501.207 395.172 501.445 395.123 501.602 395.025C501.762 394.928 501.887 394.766 501.977 394.539L502.176 394.018L499.955 387.66H501.777L502.955 391.604ZM508.199 387.66L508.252 388.369C508.701 387.818 509.309 387.543 510.074 387.543C510.891 387.543 511.451 387.865 511.756 388.51C512.201 387.865 512.836 387.543 513.66 387.543C514.348 387.543 514.859 387.744 515.195 388.146C515.531 388.545 515.699 389.146 515.699 389.951V394H514V389.957C514 389.598 513.93 389.336 513.789 389.172C513.648 389.004 513.4 388.92 513.045 388.92C512.537 388.92 512.186 389.162 511.99 389.646L511.996 394H510.303V389.963C510.303 389.596 510.23 389.33 510.086 389.166C509.941 389.002 509.695 388.92 509.348 388.92C508.867 388.92 508.52 389.119 508.305 389.518V394H506.611V387.66H508.199ZM520.68 394C520.602 393.848 520.545 393.658 520.51 393.432C520.1 393.889 519.566 394.117 518.91 394.117C518.289 394.117 517.773 393.938 517.363 393.578C516.957 393.219 516.754 392.766 516.754 392.219C516.754 391.547 517.002 391.031 517.498 390.672C517.998 390.312 518.719 390.131 519.66 390.127H520.439V389.764C520.439 389.471 520.363 389.236 520.211 389.061C520.062 388.885 519.826 388.797 519.502 388.797C519.217 388.797 518.992 388.865 518.828 389.002C518.668 389.139 518.588 389.326 518.588 389.564H516.895C516.895 389.197 517.008 388.857 517.234 388.545C517.461 388.232 517.781 387.988 518.195 387.812C518.609 387.633 519.074 387.543 519.59 387.543C520.371 387.543 520.99 387.74 521.447 388.135C521.908 388.525 522.139 389.076 522.139 389.787V392.535C522.143 393.137 522.227 393.592 522.391 393.9V394H520.68ZM519.279 392.822C519.529 392.822 519.76 392.768 519.971 392.658C520.182 392.545 520.338 392.395 520.439 392.207V391.117H519.807C518.959 391.117 518.508 391.41 518.453 391.996L518.447 392.096C518.447 392.307 518.521 392.48 518.67 392.617C518.818 392.754 519.021 392.822 519.279 392.822ZM525.227 394H523.527V387.66H525.227V394ZM523.428 386.02C523.428 385.766 523.512 385.557 523.68 385.393C523.852 385.229 524.084 385.146 524.377 385.146C524.666 385.146 524.896 385.229 525.068 385.393C525.24 385.557 525.326 385.766 525.326 386.02C525.326 386.277 525.238 386.488 525.062 386.652C524.891 386.816 524.662 386.898 524.377 386.898C524.092 386.898 523.861 386.816 523.686 386.652C523.514 386.488 523.428 386.277 523.428 386.02ZM528.414 394H526.715V385H528.414V394ZM449.963 406.318C449.963 406.025 449.852 405.799 449.629 405.639C449.41 405.475 449.025 405.334 448.475 405.217C447.928 405.1 447.492 404.959 447.168 404.795C446.848 404.631 446.609 404.436 446.453 404.209C446.301 403.982 446.225 403.713 446.225 403.4C446.225 402.881 446.443 402.441 446.881 402.082C447.322 401.723 447.885 401.543 448.568 401.543C449.287 401.543 449.869 401.729 450.314 402.1C450.764 402.471 450.988 402.945 450.988 403.523H449.898C449.898 403.227 449.771 402.971 449.518 402.756C449.268 402.541 448.951 402.434 448.568 402.434C448.174 402.434 447.865 402.52 447.643 402.691C447.42 402.863 447.309 403.088 447.309 403.365C447.309 403.627 447.412 403.824 447.619 403.957C447.826 404.09 448.199 404.217 448.738 404.338C449.281 404.459 449.721 404.604 450.057 404.771C450.393 404.939 450.641 405.143 450.801 405.381C450.965 405.615 451.047 405.902 451.047 406.242C451.047 406.809 450.82 407.264 450.367 407.607C449.914 407.947 449.326 408.117 448.604 408.117C448.096 408.117 447.646 408.027 447.256 407.848C446.865 407.668 446.559 407.418 446.336 407.098C446.117 406.773 446.008 406.424 446.008 406.049H447.092C447.111 406.412 447.256 406.701 447.525 406.916C447.799 407.127 448.158 407.232 448.604 407.232C449.014 407.232 449.342 407.15 449.588 406.986C449.838 406.818 449.963 406.596 449.963 406.318ZM456.373 408C456.311 407.875 456.26 407.652 456.221 407.332C455.717 407.855 455.115 408.117 454.416 408.117C453.791 408.117 453.277 407.941 452.875 407.59C452.477 407.234 452.277 406.785 452.277 406.242C452.277 405.582 452.527 405.07 453.027 404.707C453.531 404.34 454.238 404.156 455.148 404.156H456.203V403.658C456.203 403.279 456.09 402.979 455.863 402.756C455.637 402.529 455.303 402.416 454.861 402.416C454.475 402.416 454.15 402.514 453.889 402.709C453.627 402.904 453.496 403.141 453.496 403.418H452.406C452.406 403.102 452.518 402.797 452.74 402.504C452.967 402.207 453.271 401.973 453.654 401.801C454.041 401.629 454.465 401.543 454.926 401.543C455.656 401.543 456.229 401.727 456.643 402.094C457.057 402.457 457.271 402.959 457.287 403.6V406.518C457.287 407.1 457.361 407.562 457.51 407.906V408H456.373ZM454.574 407.174C454.914 407.174 455.236 407.086 455.541 406.91C455.846 406.734 456.066 406.506 456.203 406.225V404.924H455.354C454.025 404.924 453.361 405.312 453.361 406.09C453.361 406.43 453.475 406.695 453.701 406.887C453.928 407.078 454.219 407.174 454.574 407.174ZM460.457 400.125V401.66H461.641V402.498H460.457V406.43C460.457 406.684 460.51 406.875 460.615 407.004C460.721 407.129 460.9 407.191 461.154 407.191C461.279 407.191 461.451 407.168 461.67 407.121V408C461.385 408.078 461.107 408.117 460.838 408.117C460.354 408.117 459.988 407.971 459.742 407.678C459.496 407.385 459.373 406.969 459.373 406.43V402.498H458.219V401.66H459.373V400.125H460.457ZM465.455 407.232C465.842 407.232 466.18 407.115 466.469 406.881C466.758 406.646 466.918 406.354 466.949 406.002H467.975C467.955 406.365 467.83 406.711 467.6 407.039C467.369 407.367 467.061 407.629 466.674 407.824C466.291 408.02 465.885 408.117 465.455 408.117C464.592 408.117 463.904 407.83 463.393 407.256C462.885 406.678 462.631 405.889 462.631 404.889V404.707C462.631 404.09 462.744 403.541 462.971 403.061C463.197 402.58 463.521 402.207 463.943 401.941C464.369 401.676 464.871 401.543 465.449 401.543C466.16 401.543 466.75 401.756 467.219 402.182C467.691 402.607 467.943 403.16 467.975 403.84H466.949C466.918 403.43 466.762 403.094 466.48 402.832C466.203 402.566 465.859 402.434 465.449 402.434C464.898 402.434 464.471 402.633 464.166 403.031C463.865 403.426 463.715 403.998 463.715 404.748V404.953C463.715 405.684 463.865 406.246 464.166 406.641C464.467 407.035 464.896 407.232 465.455 407.232ZM470.277 402.428C470.758 401.838 471.383 401.543 472.152 401.543C473.492 401.543 474.168 402.299 474.18 403.811V408H473.096V403.805C473.092 403.348 472.986 403.01 472.779 402.791C472.576 402.572 472.258 402.463 471.824 402.463C471.473 402.463 471.164 402.557 470.898 402.744C470.633 402.932 470.426 403.178 470.277 403.482V408H469.193V399H470.277V402.428ZM476.822 401.66L476.852 402.363C477.316 401.816 477.943 401.543 478.732 401.543C479.619 401.543 480.223 401.883 480.543 402.562C480.754 402.258 481.027 402.012 481.363 401.824C481.703 401.637 482.104 401.543 482.564 401.543C483.955 401.543 484.662 402.279 484.686 403.752V408H483.602V403.816C483.602 403.363 483.498 403.025 483.291 402.803C483.084 402.576 482.736 402.463 482.248 402.463C481.846 402.463 481.512 402.584 481.246 402.826C480.98 403.064 480.826 403.387 480.783 403.793V408H479.693V403.846C479.693 402.924 479.242 402.463 478.34 402.463C477.629 402.463 477.143 402.766 476.881 403.371V408H475.797V401.66H476.822ZM486.039 404.771C486.039 404.15 486.16 403.592 486.402 403.096C486.648 402.6 486.988 402.217 487.422 401.947C487.859 401.678 488.357 401.543 488.916 401.543C489.779 401.543 490.477 401.842 491.008 402.439C491.543 403.037 491.811 403.832 491.811 404.824V404.9C491.811 405.518 491.691 406.072 491.453 406.564C491.219 407.053 490.881 407.434 490.439 407.707C490.002 407.98 489.498 408.117 488.928 408.117C488.068 408.117 487.371 407.818 486.836 407.221C486.305 406.623 486.039 405.832 486.039 404.848V404.771ZM487.129 404.9C487.129 405.604 487.291 406.168 487.615 406.594C487.943 407.02 488.381 407.232 488.928 407.232C489.479 407.232 489.916 407.018 490.24 406.588C490.564 406.154 490.727 405.549 490.727 404.771C490.727 404.076 490.561 403.514 490.229 403.084C489.9 402.65 489.463 402.434 488.916 402.434C488.381 402.434 487.949 402.646 487.621 403.072C487.293 403.498 487.129 404.107 487.129 404.9ZM502.533 405.059C502.486 406.004 502.252 406.75 501.83 407.297C501.408 407.844 500.844 408.117 500.137 408.117C499.406 408.117 498.938 407.789 498.73 407.133C498.52 407.465 498.277 407.713 498.004 407.877C497.734 408.037 497.455 408.117 497.166 408.117C496.611 408.117 496.191 407.891 495.906 407.438C495.621 406.984 495.516 406.357 495.59 405.557C495.648 404.912 495.795 404.338 496.029 403.834C496.268 403.326 496.572 402.928 496.943 402.639C497.318 402.35 497.711 402.205 498.121 402.205C498.438 402.205 498.721 402.248 498.971 402.334C499.221 402.416 499.502 402.58 499.814 402.826L499.51 406.072C499.436 406.975 499.686 407.426 500.26 407.426C500.701 407.426 501.059 407.207 501.332 406.77C501.605 406.332 501.754 405.762 501.777 405.059C501.852 403.539 501.568 402.381 500.928 401.584C500.291 400.787 499.32 400.389 498.016 400.389C497.23 400.389 496.533 400.584 495.924 400.975C495.314 401.361 494.834 401.922 494.482 402.656C494.131 403.391 493.934 404.238 493.891 405.199C493.844 406.168 493.961 407.01 494.242 407.725C494.523 408.436 494.951 408.979 495.525 409.354C496.104 409.732 496.801 409.922 497.617 409.922C497.969 409.922 498.32 409.879 498.672 409.793C499.027 409.707 499.322 409.596 499.557 409.459L499.773 410.133C499.531 410.285 499.209 410.41 498.807 410.508C498.408 410.605 498.004 410.654 497.594 410.654C496.617 410.654 495.777 410.434 495.074 409.992C494.371 409.555 493.844 408.922 493.492 408.094C493.145 407.27 492.994 406.305 493.041 405.199C493.088 404.125 493.328 403.16 493.762 402.305C494.195 401.445 494.783 400.783 495.525 400.318C496.268 399.85 497.105 399.615 498.039 399.615C499.012 399.615 499.846 399.834 500.541 400.271C501.236 400.709 501.754 401.34 502.094 402.164C502.434 402.988 502.58 403.953 502.533 405.059ZM496.521 405.557C496.467 406.111 496.518 406.537 496.674 406.834C496.834 407.131 497.086 407.279 497.43 407.279C497.664 407.279 497.889 407.18 498.104 406.98C498.322 406.781 498.502 406.496 498.643 406.125L498.648 406.072L498.918 403.125C498.699 403.012 498.465 402.955 498.215 402.955C497.758 402.955 497.379 403.188 497.078 403.652C496.781 404.117 496.596 404.752 496.521 405.557ZM505.035 402.428C505.516 401.838 506.141 401.543 506.91 401.543C508.25 401.543 508.926 402.299 508.938 403.811V408H507.854V403.805C507.85 403.348 507.744 403.01 507.537 402.791C507.334 402.572 507.016 402.463 506.582 402.463C506.23 402.463 505.922 402.557 505.656 402.744C505.391 402.932 505.184 403.178 505.035 403.482V408H503.951V399H505.035V402.428ZM514.475 408C514.412 407.875 514.361 407.652 514.322 407.332C513.818 407.855 513.217 408.117 512.518 408.117C511.893 408.117 511.379 407.941 510.977 407.59C510.578 407.234 510.379 406.785 510.379 406.242C510.379 405.582 510.629 405.07 511.129 404.707C511.633 404.34 512.34 404.156 513.25 404.156H514.305V403.658C514.305 403.279 514.191 402.979 513.965 402.756C513.738 402.529 513.404 402.416 512.963 402.416C512.576 402.416 512.252 402.514 511.99 402.709C511.729 402.904 511.598 403.141 511.598 403.418H510.508C510.508 403.102 510.619 402.797 510.842 402.504C511.068 402.207 511.373 401.973 511.756 401.801C512.143 401.629 512.566 401.543 513.027 401.543C513.758 401.543 514.33 401.727 514.744 402.094C515.158 402.457 515.373 402.959 515.389 403.6V406.518C515.389 407.1 515.463 407.562 515.611 407.906V408H514.475ZM512.676 407.174C513.016 407.174 513.338 407.086 513.643 406.91C513.947 406.734 514.168 406.506 514.305 406.225V404.924H513.455C512.127 404.924 511.463 405.312 511.463 406.09C511.463 406.43 511.576 406.695 511.803 406.887C512.029 407.078 512.32 407.174 512.676 407.174ZM518.113 401.66L518.148 402.457C518.633 401.848 519.266 401.543 520.047 401.543C521.387 401.543 522.062 402.299 522.074 403.811V408H520.99V403.805C520.986 403.348 520.881 403.01 520.674 402.791C520.471 402.572 520.152 402.463 519.719 402.463C519.367 402.463 519.059 402.557 518.793 402.744C518.527 402.932 518.32 403.178 518.172 403.482V408H517.088V401.66H518.113ZM523.445 404.777C523.445 403.805 523.676 403.023 524.137 402.434C524.598 401.84 525.201 401.543 525.947 401.543C526.689 401.543 527.277 401.797 527.711 402.305V399H528.795V408H527.799L527.746 407.32C527.312 407.852 526.709 408.117 525.936 408.117C525.201 408.117 524.602 407.816 524.137 407.215C523.676 406.613 523.445 405.828 523.445 404.859V404.777ZM524.529 404.9C524.529 405.619 524.678 406.182 524.975 406.588C525.271 406.994 525.682 407.197 526.205 407.197C526.893 407.197 527.395 406.889 527.711 406.271V403.359C527.387 402.762 526.889 402.463 526.217 402.463C525.686 402.463 525.271 402.668 524.975 403.078C524.678 403.488 524.529 404.096 524.529 404.9ZM533.025 407.232C533.412 407.232 533.75 407.115 534.039 406.881C534.328 406.646 534.488 406.354 534.52 406.002H535.545C535.525 406.365 535.4 406.711 535.17 407.039C534.939 407.367 534.631 407.629 534.244 407.824C533.861 408.02 533.455 408.117 533.025 408.117C532.162 408.117 531.475 407.83 530.963 407.256C530.455 406.678 530.201 405.889 530.201 404.889V404.707C530.201 404.09 530.314 403.541 530.541 403.061C530.768 402.58 531.092 402.207 531.514 401.941C531.939 401.676 532.441 401.543 533.02 401.543C533.73 401.543 534.32 401.756 534.789 402.182C535.262 402.607 535.514 403.16 535.545 403.84H534.52C534.488 403.43 534.332 403.094 534.051 402.832C533.773 402.566 533.43 402.434 533.02 402.434C532.469 402.434 532.041 402.633 531.736 403.031C531.436 403.426 531.285 403.998 531.285 404.748V404.953C531.285 405.684 531.436 406.246 531.736 406.641C532.037 407.035 532.467 407.232 533.025 407.232ZM540.678 408C540.615 407.875 540.564 407.652 540.525 407.332C540.021 407.855 539.42 408.117 538.721 408.117C538.096 408.117 537.582 407.941 537.18 407.59C536.781 407.234 536.582 406.785 536.582 406.242C536.582 405.582 536.832 405.07 537.332 404.707C537.836 404.34 538.543 404.156 539.453 404.156H540.508V403.658C540.508 403.279 540.395 402.979 540.168 402.756C539.941 402.529 539.607 402.416 539.166 402.416C538.779 402.416 538.455 402.514 538.193 402.709C537.932 402.904 537.801 403.141 537.801 403.418H536.711C536.711 403.102 536.822 402.797 537.045 402.504C537.271 402.207 537.576 401.973 537.959 401.801C538.346 401.629 538.77 401.543 539.23 401.543C539.961 401.543 540.533 401.727 540.947 402.094C541.361 402.457 541.576 402.959 541.592 403.6V406.518C541.592 407.1 541.666 407.562 541.814 407.906V408H540.678ZM538.879 407.174C539.219 407.174 539.541 407.086 539.846 406.91C540.15 406.734 540.371 406.506 540.508 406.225V404.924H539.658C538.33 404.924 537.666 405.312 537.666 406.09C537.666 406.43 537.779 406.695 538.006 406.887C538.232 407.078 538.523 407.174 538.879 407.174ZM546.982 406.318C546.982 406.025 546.871 405.799 546.648 405.639C546.43 405.475 546.045 405.334 545.494 405.217C544.947 405.1 544.512 404.959 544.188 404.795C543.867 404.631 543.629 404.436 543.473 404.209C543.32 403.982 543.244 403.713 543.244 403.4C543.244 402.881 543.463 402.441 543.9 402.082C544.342 401.723 544.904 401.543 545.588 401.543C546.307 401.543 546.889 401.729 547.334 402.1C547.783 402.471 548.008 402.945 548.008 403.523H546.918C546.918 403.227 546.791 402.971 546.537 402.756C546.287 402.541 545.971 402.434 545.588 402.434C545.193 402.434 544.885 402.52 544.662 402.691C544.439 402.863 544.328 403.088 544.328 403.365C544.328 403.627 544.432 403.824 544.639 403.957C544.846 404.09 545.219 404.217 545.758 404.338C546.301 404.459 546.74 404.604 547.076 404.771C547.412 404.939 547.66 405.143 547.82 405.381C547.984 405.615 548.066 405.902 548.066 406.242C548.066 406.809 547.84 407.264 547.387 407.607C546.934 407.947 546.346 408.117 545.623 408.117C545.115 408.117 544.666 408.027 544.275 407.848C543.885 407.668 543.578 407.418 543.355 407.098C543.137 406.773 543.027 406.424 543.027 406.049H544.111C544.131 406.412 544.275 406.701 544.545 406.916C544.818 407.127 545.178 407.232 545.623 407.232C546.033 407.232 546.361 407.15 546.607 406.986C546.857 406.818 546.982 406.596 546.982 406.318ZM550.562 402.428C551.043 401.838 551.668 401.543 552.438 401.543C553.777 401.543 554.453 402.299 554.465 403.811V408H553.381V403.805C553.377 403.348 553.271 403.01 553.064 402.791C552.861 402.572 552.543 402.463 552.109 402.463C551.758 402.463 551.449 402.557 551.184 402.744C550.918 402.932 550.711 403.178 550.562 403.482V408H549.479V399H550.562V402.428ZM556.111 407.432C556.111 407.244 556.166 407.088 556.275 406.963C556.389 406.838 556.557 406.775 556.779 406.775C557.002 406.775 557.17 406.838 557.283 406.963C557.4 407.088 557.459 407.244 557.459 407.432C557.459 407.611 557.4 407.762 557.283 407.883C557.17 408.004 557.002 408.064 556.779 408.064C556.557 408.064 556.389 408.004 556.275 407.883C556.166 407.762 556.111 407.611 556.111 407.432ZM560.43 408H559.346V401.66H560.43V408ZM559.258 399.979C559.258 399.803 559.311 399.654 559.416 399.533C559.525 399.412 559.686 399.352 559.896 399.352C560.107 399.352 560.268 399.412 560.377 399.533C560.486 399.654 560.541 399.803 560.541 399.979C560.541 400.154 560.486 400.301 560.377 400.418C560.268 400.535 560.107 400.594 559.896 400.594C559.686 400.594 559.525 400.535 559.416 400.418C559.311 400.301 559.258 400.154 559.258 399.979ZM561.883 404.771C561.883 404.15 562.004 403.592 562.246 403.096C562.492 402.6 562.832 402.217 563.266 401.947C563.703 401.678 564.201 401.543 564.76 401.543C565.623 401.543 566.32 401.842 566.852 402.439C567.387 403.037 567.654 403.832 567.654 404.824V404.9C567.654 405.518 567.535 406.072 567.297 406.564C567.062 407.053 566.725 407.434 566.283 407.707C565.846 407.98 565.342 408.117 564.771 408.117C563.912 408.117 563.215 407.818 562.68 407.221C562.148 406.623 561.883 405.832 561.883 404.848V404.771ZM562.973 404.9C562.973 405.604 563.135 406.168 563.459 406.594C563.787 407.02 564.225 407.232 564.771 407.232C565.322 407.232 565.76 407.018 566.084 406.588C566.408 406.154 566.57 405.549 566.57 404.771C566.57 404.076 566.404 403.514 566.072 403.084C565.744 402.65 565.307 402.434 564.76 402.434C564.225 402.434 563.793 402.646 563.465 403.072C563.137 403.498 562.973 404.107 562.973 404.9ZM568.979 409.699L568.363 409.277C568.73 408.766 568.922 408.238 568.938 407.695V406.717H569.998V407.566C569.998 407.961 569.9 408.355 569.705 408.75C569.514 409.145 569.271 409.461 568.979 409.699ZM435.01 420.318C435.01 420.025 434.898 419.799 434.676 419.639C434.457 419.475 434.072 419.334 433.521 419.217C432.975 419.1 432.539 418.959 432.215 418.795C431.895 418.631 431.656 418.436 431.5 418.209C431.348 417.982 431.271 417.713 431.271 417.4C431.271 416.881 431.49 416.441 431.928 416.082C432.369 415.723 432.932 415.543 433.615 415.543C434.334 415.543 434.916 415.729 435.361 416.1C435.811 416.471 436.035 416.945 436.035 417.523H434.945C434.945 417.227 434.818 416.971 434.564 416.756C434.314 416.541 433.998 416.434 433.615 416.434C433.221 416.434 432.912 416.52 432.689 416.691C432.467 416.863 432.355 417.088 432.355 417.365C432.355 417.627 432.459 417.824 432.666 417.957C432.873 418.09 433.246 418.217 433.785 418.338C434.328 418.459 434.768 418.604 435.104 418.771C435.439 418.939 435.688 419.143 435.848 419.381C436.012 419.615 436.094 419.902 436.094 420.242C436.094 420.809 435.867 421.264 435.414 421.607C434.961 421.947 434.373 422.117 433.65 422.117C433.143 422.117 432.693 422.027 432.303 421.848C431.912 421.668 431.605 421.418 431.383 421.098C431.164 420.773 431.055 420.424 431.055 420.049H432.139C432.158 420.412 432.303 420.701 432.572 420.916C432.846 421.127 433.205 421.232 433.65 421.232C434.061 421.232 434.389 421.15 434.635 420.986C434.885 420.818 435.01 420.596 435.01 420.318ZM441.42 422C441.357 421.875 441.307 421.652 441.268 421.332C440.764 421.855 440.162 422.117 439.463 422.117C438.838 422.117 438.324 421.941 437.922 421.59C437.523 421.234 437.324 420.785 437.324 420.242C437.324 419.582 437.574 419.07 438.074 418.707C438.578 418.34 439.285 418.156 440.195 418.156H441.25V417.658C441.25 417.279 441.137 416.979 440.91 416.756C440.684 416.529 440.35 416.416 439.908 416.416C439.521 416.416 439.197 416.514 438.936 416.709C438.674 416.904 438.543 417.141 438.543 417.418H437.453C437.453 417.102 437.564 416.797 437.787 416.504C438.014 416.207 438.318 415.973 438.701 415.801C439.088 415.629 439.512 415.543 439.973 415.543C440.703 415.543 441.275 415.727 441.689 416.094C442.104 416.457 442.318 416.959 442.334 417.6V420.518C442.334 421.1 442.408 421.562 442.557 421.906V422H441.42ZM439.621 421.174C439.961 421.174 440.283 421.086 440.588 420.91C440.893 420.734 441.113 420.506 441.25 420.225V418.924H440.4C439.072 418.924 438.408 419.312 438.408 420.09C438.408 420.43 438.521 420.695 438.748 420.887C438.975 421.078 439.266 421.174 439.621 421.174ZM445.504 414.125V415.66H446.688V416.498H445.504V420.43C445.504 420.684 445.557 420.875 445.662 421.004C445.768 421.129 445.947 421.191 446.201 421.191C446.326 421.191 446.498 421.168 446.717 421.121V422C446.432 422.078 446.154 422.117 445.885 422.117C445.4 422.117 445.035 421.971 444.789 421.678C444.543 421.385 444.42 420.969 444.42 420.43V416.498H443.266V415.66H444.42V414.125H445.504ZM450.502 421.232C450.889 421.232 451.227 421.115 451.516 420.881C451.805 420.646 451.965 420.354 451.996 420.002H453.021C453.002 420.365 452.877 420.711 452.646 421.039C452.416 421.367 452.107 421.629 451.721 421.824C451.338 422.02 450.932 422.117 450.502 422.117C449.639 422.117 448.951 421.83 448.439 421.256C447.932 420.678 447.678 419.889 447.678 418.889V418.707C447.678 418.09 447.791 417.541 448.018 417.061C448.244 416.58 448.568 416.207 448.99 415.941C449.416 415.676 449.918 415.543 450.496 415.543C451.207 415.543 451.797 415.756 452.266 416.182C452.738 416.607 452.99 417.16 453.021 417.84H451.996C451.965 417.43 451.809 417.094 451.527 416.832C451.25 416.566 450.906 416.434 450.496 416.434C449.945 416.434 449.518 416.633 449.213 417.031C448.912 417.426 448.762 417.998 448.762 418.748V418.953C448.762 419.684 448.912 420.246 449.213 420.641C449.514 421.035 449.943 421.232 450.502 421.232ZM455.324 416.428C455.805 415.838 456.43 415.543 457.199 415.543C458.539 415.543 459.215 416.299 459.227 417.811V422H458.143V417.805C458.139 417.348 458.033 417.01 457.826 416.791C457.623 416.572 457.305 416.463 456.871 416.463C456.52 416.463 456.211 416.557 455.945 416.744C455.68 416.932 455.473 417.178 455.324 417.482V422H454.24V413H455.324V416.428ZM461.869 415.66L461.898 416.363C462.363 415.816 462.99 415.543 463.779 415.543C464.666 415.543 465.27 415.883 465.59 416.562C465.801 416.258 466.074 416.012 466.41 415.824C466.75 415.637 467.15 415.543 467.611 415.543C469.002 415.543 469.709 416.279 469.732 417.752V422H468.648V417.816C468.648 417.363 468.545 417.025 468.338 416.803C468.131 416.576 467.783 416.463 467.295 416.463C466.893 416.463 466.559 416.584 466.293 416.826C466.027 417.064 465.873 417.387 465.83 417.793V422H464.74V417.846C464.74 416.924 464.289 416.463 463.387 416.463C462.676 416.463 462.189 416.766 461.928 417.371V422H460.844V415.66H461.869ZM471.086 418.771C471.086 418.15 471.207 417.592 471.449 417.096C471.695 416.6 472.035 416.217 472.469 415.947C472.906 415.678 473.404 415.543 473.963 415.543C474.826 415.543 475.523 415.842 476.055 416.439C476.59 417.037 476.857 417.832 476.857 418.824V418.9C476.857 419.518 476.738 420.072 476.5 420.564C476.266 421.053 475.928 421.434 475.486 421.707C475.049 421.98 474.545 422.117 473.975 422.117C473.115 422.117 472.418 421.818 471.883 421.221C471.352 420.623 471.086 419.832 471.086 418.848V418.771ZM472.176 418.9C472.176 419.604 472.338 420.168 472.662 420.594C472.99 421.02 473.428 421.232 473.975 421.232C474.525 421.232 474.963 421.018 475.287 420.588C475.611 420.154 475.773 419.549 475.773 418.771C475.773 418.076 475.607 417.514 475.275 417.084C474.947 416.65 474.51 416.434 473.963 416.434C473.428 416.434 472.996 416.646 472.668 417.072C472.34 417.498 472.176 418.107 472.176 418.9ZM487.58 419.059C487.533 420.004 487.299 420.75 486.877 421.297C486.455 421.844 485.891 422.117 485.184 422.117C484.453 422.117 483.984 421.789 483.777 421.133C483.566 421.465 483.324 421.713 483.051 421.877C482.781 422.037 482.502 422.117 482.213 422.117C481.658 422.117 481.238 421.891 480.953 421.438C480.668 420.984 480.562 420.357 480.637 419.557C480.695 418.912 480.842 418.338 481.076 417.834C481.314 417.326 481.619 416.928 481.99 416.639C482.365 416.35 482.758 416.205 483.168 416.205C483.484 416.205 483.768 416.248 484.018 416.334C484.268 416.416 484.549 416.58 484.861 416.826L484.557 420.072C484.482 420.975 484.732 421.426 485.307 421.426C485.748 421.426 486.105 421.207 486.379 420.77C486.652 420.332 486.801 419.762 486.824 419.059C486.898 417.539 486.615 416.381 485.975 415.584C485.338 414.787 484.367 414.389 483.062 414.389C482.277 414.389 481.58 414.584 480.971 414.975C480.361 415.361 479.881 415.922 479.529 416.656C479.178 417.391 478.98 418.238 478.938 419.199C478.891 420.168 479.008 421.01 479.289 421.725C479.57 422.436 479.998 422.979 480.572 423.354C481.15 423.732 481.848 423.922 482.664 423.922C483.016 423.922 483.367 423.879 483.719 423.793C484.074 423.707 484.369 423.596 484.604 423.459L484.82 424.133C484.578 424.285 484.256 424.41 483.854 424.508C483.455 424.605 483.051 424.654 482.641 424.654C481.664 424.654 480.824 424.434 480.121 423.992C479.418 423.555 478.891 422.922 478.539 422.094C478.191 421.27 478.041 420.305 478.088 419.199C478.135 418.125 478.375 417.16 478.809 416.305C479.242 415.445 479.83 414.783 480.572 414.318C481.314 413.85 482.152 413.615 483.086 413.615C484.059 413.615 484.893 413.834 485.588 414.271C486.283 414.709 486.801 415.34 487.141 416.164C487.48 416.988 487.627 417.953 487.58 419.059ZM481.568 419.557C481.514 420.111 481.564 420.537 481.721 420.834C481.881 421.131 482.133 421.279 482.477 421.279C482.711 421.279 482.936 421.18 483.15 420.98C483.369 420.781 483.549 420.496 483.689 420.125L483.695 420.072L483.965 417.125C483.746 417.012 483.512 416.955 483.262 416.955C482.805 416.955 482.426 417.188 482.125 417.652C481.828 418.117 481.643 418.752 481.568 419.557ZM490.018 415.66L490.047 416.363C490.512 415.816 491.139 415.543 491.928 415.543C492.814 415.543 493.418 415.883 493.738 416.562C493.949 416.258 494.223 416.012 494.559 415.824C494.898 415.637 495.299 415.543 495.76 415.543C497.15 415.543 497.857 416.279 497.881 417.752V422H496.797V417.816C496.797 417.363 496.693 417.025 496.486 416.803C496.279 416.576 495.932 416.463 495.443 416.463C495.041 416.463 494.707 416.584 494.441 416.826C494.176 417.064 494.021 417.387 493.979 417.793V422H492.889V417.846C492.889 416.924 492.438 416.463 491.535 416.463C490.824 416.463 490.338 416.766 490.076 417.371V422H488.992V415.66H490.018ZM499.234 418.771C499.234 418.15 499.355 417.592 499.598 417.096C499.844 416.6 500.184 416.217 500.617 415.947C501.055 415.678 501.553 415.543 502.111 415.543C502.975 415.543 503.672 415.842 504.203 416.439C504.738 417.037 505.006 417.832 505.006 418.824V418.9C505.006 419.518 504.887 420.072 504.648 420.564C504.414 421.053 504.076 421.434 503.635 421.707C503.197 421.98 502.693 422.117 502.123 422.117C501.264 422.117 500.566 421.818 500.031 421.221C499.5 420.623 499.234 419.832 499.234 418.848V418.771ZM500.324 418.9C500.324 419.604 500.486 420.168 500.811 420.594C501.139 421.02 501.576 421.232 502.123 421.232C502.674 421.232 503.111 421.018 503.436 420.588C503.76 420.154 503.922 419.549 503.922 418.771C503.922 418.076 503.756 417.514 503.424 417.084C503.096 416.65 502.658 416.434 502.111 416.434C501.576 416.434 501.145 416.646 500.816 417.072C500.488 417.498 500.324 418.107 500.324 418.9ZM507.391 415.66L507.426 416.457C507.91 415.848 508.543 415.543 509.324 415.543C510.664 415.543 511.34 416.299 511.352 417.811V422H510.268V417.805C510.264 417.348 510.158 417.01 509.951 416.791C509.748 416.572 509.43 416.463 508.996 416.463C508.645 416.463 508.336 416.557 508.07 416.744C507.805 416.932 507.598 417.178 507.449 417.482V422H506.365V415.66H507.391ZM515.617 422.117C514.758 422.117 514.059 421.836 513.52 421.273C512.98 420.707 512.711 419.951 512.711 419.006V418.807C512.711 418.178 512.83 417.617 513.068 417.125C513.311 416.629 513.646 416.242 514.076 415.965C514.51 415.684 514.979 415.543 515.482 415.543C516.307 415.543 516.947 415.814 517.404 416.357C517.861 416.9 518.09 417.678 518.09 418.689V419.141H513.795C513.811 419.766 513.992 420.271 514.34 420.658C514.691 421.041 515.137 421.232 515.676 421.232C516.059 421.232 516.383 421.154 516.648 420.998C516.914 420.842 517.146 420.635 517.346 420.377L518.008 420.893C517.477 421.709 516.68 422.117 515.617 422.117ZM515.482 416.434C515.045 416.434 514.678 416.594 514.381 416.914C514.084 417.23 513.9 417.676 513.83 418.25H517.006V418.168C516.975 417.617 516.826 417.191 516.561 416.891C516.295 416.586 515.936 416.434 515.482 416.434ZM521.342 420.412L522.818 415.66H523.979L521.43 422.979C521.035 424.033 520.408 424.561 519.549 424.561L519.344 424.543L518.939 424.467V423.588L519.232 423.611C519.6 423.611 519.885 423.537 520.088 423.389C520.295 423.24 520.465 422.969 520.598 422.574L520.838 421.93L518.576 415.66H519.76L521.342 420.412ZM530.318 418.9C530.318 419.869 530.096 420.648 529.65 421.238C529.205 421.824 528.607 422.117 527.857 422.117C527.057 422.117 526.438 421.834 526 421.268L525.947 422H524.951V413H526.035V416.357C526.473 415.814 527.076 415.543 527.846 415.543C528.615 415.543 529.219 415.834 529.656 416.416C530.098 416.998 530.318 417.795 530.318 418.807V418.9ZM529.234 418.777C529.234 418.039 529.092 417.469 528.807 417.066C528.521 416.664 528.111 416.463 527.576 416.463C526.861 416.463 526.348 416.795 526.035 417.459V420.201C526.367 420.865 526.885 421.197 527.588 421.197C528.107 421.197 528.512 420.996 528.801 420.594C529.09 420.191 529.234 419.586 529.234 418.777ZM535.604 421.373C535.182 421.869 534.562 422.117 533.746 422.117C533.07 422.117 532.555 421.922 532.199 421.531C531.848 421.137 531.67 420.555 531.666 419.785V415.66H532.75V419.756C532.75 420.717 533.141 421.197 533.922 421.197C534.75 421.197 535.301 420.889 535.574 420.271V415.66H536.658V422H535.627L535.604 421.373ZM539.781 414.125V415.66H540.965V416.498H539.781V420.43C539.781 420.684 539.834 420.875 539.939 421.004C540.045 421.129 540.225 421.191 540.479 421.191C540.604 421.191 540.775 421.168 540.994 421.121V422C540.709 422.078 540.432 422.117 540.162 422.117C539.678 422.117 539.312 421.971 539.066 421.678C538.82 421.385 538.697 420.969 538.697 420.43V416.498H537.543V415.66H538.697V414.125H539.781ZM543.707 414.125V415.66H544.891V416.498H543.707V420.43C543.707 420.684 543.76 420.875 543.865 421.004C543.971 421.129 544.15 421.191 544.404 421.191C544.529 421.191 544.701 421.168 544.92 421.121V422C544.635 422.078 544.357 422.117 544.088 422.117C543.604 422.117 543.238 421.971 542.992 421.678C542.746 421.385 542.623 420.969 542.623 420.43V416.498H541.469V415.66H542.623V414.125H543.707ZM545.758 418.771C545.758 418.15 545.879 417.592 546.121 417.096C546.367 416.6 546.707 416.217 547.141 415.947C547.578 415.678 548.076 415.543 548.635 415.543C549.498 415.543 550.195 415.842 550.727 416.439C551.262 417.037 551.529 417.832 551.529 418.824V418.9C551.529 419.518 551.41 420.072 551.172 420.564C550.938 421.053 550.6 421.434 550.158 421.707C549.721 421.98 549.217 422.117 548.646 422.117C547.787 422.117 547.09 421.818 546.555 421.221C546.023 420.623 545.758 419.832 545.758 418.848V418.771ZM546.848 418.9C546.848 419.604 547.01 420.168 547.334 420.594C547.662 421.02 548.1 421.232 548.646 421.232C549.197 421.232 549.635 421.018 549.959 420.588C550.283 420.154 550.445 419.549 550.445 418.771C550.445 418.076 550.279 417.514 549.947 417.084C549.619 416.65 549.182 416.434 548.635 416.434C548.1 416.434 547.668 416.646 547.34 417.072C547.012 417.498 546.848 418.107 546.848 418.9ZM553.914 415.66L553.949 416.457C554.434 415.848 555.066 415.543 555.848 415.543C557.188 415.543 557.863 416.299 557.875 417.811V422H556.791V417.805C556.787 417.348 556.682 417.01 556.475 416.791C556.271 416.572 555.953 416.463 555.52 416.463C555.168 416.463 554.859 416.557 554.594 416.744C554.328 416.932 554.121 417.178 553.973 417.482V422H552.889V415.66H553.914ZM559.533 421.432C559.533 421.244 559.588 421.088 559.697 420.963C559.811 420.838 559.979 420.775 560.201 420.775C560.424 420.775 560.592 420.838 560.705 420.963C560.822 421.088 560.881 421.244 560.881 421.432C560.881 421.611 560.822 421.762 560.705 421.883C560.592 422.004 560.424 422.064 560.201 422.064C559.979 422.064 559.811 422.004 559.697 421.883C559.588 421.762 559.533 421.611 559.533 421.432ZM565.217 421.232C565.604 421.232 565.941 421.115 566.23 420.881C566.52 420.646 566.68 420.354 566.711 420.002H567.736C567.717 420.365 567.592 420.711 567.361 421.039C567.131 421.367 566.822 421.629 566.436 421.824C566.053 422.02 565.646 422.117 565.217 422.117C564.354 422.117 563.666 421.83 563.154 421.256C562.646 420.678 562.393 419.889 562.393 418.889V418.707C562.393 418.09 562.506 417.541 562.732 417.061C562.959 416.58 563.283 416.207 563.705 415.941C564.131 415.676 564.633 415.543 565.211 415.543C565.922 415.543 566.512 415.756 566.98 416.182C567.453 416.607 567.705 417.16 567.736 417.84H566.711C566.68 417.43 566.523 417.094 566.242 416.832C565.965 416.566 565.621 416.434 565.211 416.434C564.66 416.434 564.232 416.633 563.928 417.031C563.627 417.426 563.477 417.998 563.477 418.748V418.953C563.477 419.684 563.627 420.246 563.928 420.641C564.229 421.035 564.658 421.232 565.217 421.232ZM568.668 418.771C568.668 418.15 568.789 417.592 569.031 417.096C569.277 416.6 569.617 416.217 570.051 415.947C570.488 415.678 570.986 415.543 571.545 415.543C572.408 415.543 573.105 415.842 573.637 416.439C574.172 417.037 574.439 417.832 574.439 418.824V418.9C574.439 419.518 574.32 420.072 574.082 420.564C573.848 421.053 573.51 421.434 573.068 421.707C572.631 421.98 572.127 422.117 571.557 422.117C570.697 422.117 570 421.818 569.465 421.221C568.934 420.623 568.668 419.832 568.668 418.848V418.771ZM569.758 418.9C569.758 419.604 569.92 420.168 570.244 420.594C570.572 421.02 571.01 421.232 571.557 421.232C572.107 421.232 572.545 421.018 572.869 420.588C573.193 420.154 573.355 419.549 573.355 418.771C573.355 418.076 573.189 417.514 572.857 417.084C572.529 416.65 572.092 416.434 571.545 416.434C571.01 416.434 570.578 416.646 570.25 417.072C569.922 417.498 569.758 418.107 569.758 418.9ZM576.818 415.66L576.848 416.363C577.312 415.816 577.939 415.543 578.729 415.543C579.615 415.543 580.219 415.883 580.539 416.562C580.75 416.258 581.023 416.012 581.359 415.824C581.699 415.637 582.1 415.543 582.561 415.543C583.951 415.543 584.658 416.279 584.682 417.752V422H583.598V417.816C583.598 417.363 583.494 417.025 583.287 416.803C583.08 416.576 582.732 416.463 582.244 416.463C581.842 416.463 581.508 416.584 581.242 416.826C580.977 417.064 580.822 417.387 580.779 417.793V422H579.689V417.846C579.689 416.924 579.238 416.463 578.336 416.463C577.625 416.463 577.139 416.766 576.877 417.371V422H575.793V415.66H576.818Z" fill="black"/>
</svg>
